<svg width="450" height="36" viewBox="0 0 450 36" fill="none" xmlns="http://www.w3.org/2000/svg">
<path d="M41.9998 23.7274H34.3635V16.091H41.9998V23.7274Z" fill="#9FE0C1"/>
<path d="M19.0907 23.7275H11.4543V16.0911H19.0907V23.7275Z" fill="#9FE0C1"/>
<path d="M41.9998 16.091H34.3635V8.45475H41.9998V16.091Z" fill="#9FE0C1"/>
<path d="M19.0907 16.0911H11.4543V8.45475H19.0907V16.0911Z" fill="#9FE0C1"/>
<path d="M41.9998 8.45475H34.3635V0.818359H41.9998V8.45475Z" fill="#9FE0C1"/>
<path d="M19.0907 8.45475H11.4543V0.818359H19.0907V8.45475Z" fill="#9FE0C1"/>
<path d="M34.3635 8.45475L26.7271 8.45472V0.818359H34.3635V8.45475Z" fill="#9FE0C1"/>
<path d="M26.7271 8.45472L19.0907 8.45475V0.818359H26.7271V8.45472Z" fill="#9FE0C1"/>
<path d="M30.5454 12.2727H22.909V19.909H30.5454V12.2727Z" fill="#9FE0C1"/>
<path d="M7.63636 12.2726H0V19.909H7.63636V12.2726Z" fill="#9FE0C1"/>
<path d="M30.5454 19.909H22.909L22.9092 27.5454H30.5455L30.5454 19.909Z" fill="#9FE0C1"/>
<path d="M7.63636 19.909H0V27.5454H7.63636V19.909Z" fill="#9FE0C1"/>
<path d="M30.5455 27.5454H22.9092V35.1818H30.5455V27.5454Z" fill="#9FE0C1"/>
<path d="M7.63636 27.5454H0V35.1818H7.63636V27.5454Z" fill="#9FE0C1"/>
<path d="M22.9092 27.5454L15.2728 27.5454V35.1818H22.9092V27.5454Z" fill="#9FE0C1"/>
<path d="M15.2728 27.5454L7.63636 27.5454V35.1818H15.2728V27.5454Z" fill="#9FE0C1"/>
<path d="M72.24 6.32H80.304V18.448C80.304 20.752 79.664 22.832 78.384 24.688C77.104 26.544 75.376 28.0053 73.2 29.072C71.024 30.1173 68.6453 30.64 66.064 30.64C63.2907 30.64 60.7733 30.1173 58.512 29.072C56.2507 28.0267 54.4587 26.5867 53.136 24.752C51.8347 22.896 51.1733 20.816 51.152 18.512V6.32H59.344V18.512C59.344 20.4533 60.0053 21.8827 61.328 22.8C62.672 23.7173 64.2613 24.176 66.096 24.176C67.056 24.176 68.0053 23.9947 68.944 23.632C69.8827 23.248 70.6613 22.6293 71.28 21.776C71.92 20.9227 72.24 19.8347 72.24 18.512V6.32ZM96.7328 11.984C99.3568 11.984 101.383 12.8267 102.813 14.512C104.263 16.1973 104.989 18.96 104.989 22.8V30H97.6288V22.896C97.6288 21.552 97.5541 20.4533 97.4048 19.6C97.2554 18.7467 96.8928 18.032 96.3168 17.456C95.7408 16.88 94.8448 16.592 93.6288 16.592C92.3488 16.592 91.3994 16.8693 90.7808 17.424C90.1621 17.9573 89.7674 18.6507 89.5968 19.504C89.4261 20.3573 89.3408 21.4773 89.3408 22.864V30H81.9808V12.56H89.3408V14.736C90.9621 12.9013 93.4261 11.984 96.7328 11.984ZM113.521 6.32H106.161V11.152H113.521V6.32ZM113.521 30H106.161V12.08H113.521V30ZM125.591 12.56H128.919V17.584H125.591V30H118.231V17.584H114.743V12.56H118.231V8.784L125.591 5.808V12.56ZM141.634 19.632C142.252 19.632 142.722 19.6213 143.042 19.6L144.866 19.568C147.383 19.568 149.42 19.8987 150.978 20.56C152.556 21.2 153.346 22.4907 153.346 24.432C153.346 26.9493 152.172 28.6347 149.826 29.488C147.5 30.32 144.834 30.736 141.826 30.736C138.839 30.736 136.098 30.2987 133.602 29.424C131.127 28.528 129.89 26.8213 129.89 24.304H137.314C137.314 25.3067 137.751 25.9787 138.626 26.32C139.5 26.64 140.567 26.8 141.826 26.8C143.255 26.8 144.311 26.6293 144.994 26.288C145.698 25.9253 146.05 25.3493 146.05 24.56C146.05 23.856 145.644 23.4187 144.834 23.248C144.023 23.056 142.999 22.96 141.762 22.96H140.642C138.7 22.96 136.972 22.864 135.458 22.672C133.964 22.4587 132.663 21.968 131.554 21.2C130.444 20.432 129.89 19.28 129.89 17.744C129.89 15.312 131.084 13.7227 133.474 12.976C135.884 12.2293 138.658 11.856 141.794 11.856C144.759 11.856 147.426 12.2933 149.794 13.168C152.162 14.0427 153.346 15.7387 153.346 18.256L145.986 18.224C145.986 17.136 145.431 16.464 144.322 16.208C143.212 15.952 142.338 15.824 141.698 15.824C140.716 15.824 139.735 15.9413 138.754 16.176C137.794 16.3893 137.314 16.88 137.314 17.648C137.314 18.928 138.754 19.5893 141.634 19.632ZM172.296 30H164.392V6.32L172.296 30ZM194.632 30H186.76H194.632ZM186.76 20.816V6.32H194.632V30H186.76L172.296 15.504V30H164.392V6.32H172.296L186.76 20.816ZM208.114 11.792C211.165 11.792 213.906 12.304 216.338 13.328C218.77 14.352 219.986 16.1547 219.986 18.736V30H213.01L212.466 27.728V27.568C211.933 28.528 210.802 29.232 209.074 29.68C207.368 30.128 205.501 30.352 203.474 30.352C201.853 30.352 200.232 30 198.61 29.296C196.989 28.5707 196.178 27.0667 196.178 24.784C196.178 21.1787 198.536 19.376 203.25 19.376C206.28 19.376 208.392 19.3547 209.586 19.312C210.781 19.248 211.57 19.1413 211.954 18.992C212.338 18.8213 212.541 18.5227 212.562 18.096V17.68C212.541 16.976 212.072 16.464 211.154 16.144C210.258 15.8027 209.234 15.632 208.082 15.632C206.888 15.6533 205.864 15.8773 205.01 16.304C204.178 16.7307 203.762 17.3813 203.762 18.256H196.37C196.37 16.6347 197.01 15.344 198.29 14.384C199.57 13.4027 201.096 12.7307 202.866 12.368C204.658 11.984 206.408 11.792 208.114 11.792ZM207.634 25.68C209.213 25.68 210.408 25.328 211.218 24.624C212.029 23.92 212.466 23.024 212.53 21.936V21.488C211.72 21.8293 210.429 22 208.658 22C206.824 22 205.533 22.128 204.786 22.384C204.061 22.64 203.688 23.1093 203.666 23.792C203.73 24.432 204.061 24.912 204.658 25.232C205.277 25.5307 206.269 25.68 207.634 25.68ZM250.839 11.984C252.567 11.984 253.953 12.336 254.999 13.04C256.065 13.744 256.855 14.8853 257.367 16.464C257.879 18.0213 258.135 20.1333 258.135 22.8V30H250.775V22.896C250.775 21.616 250.689 20.528 250.519 19.632C250.369 18.736 250.017 18 249.463 17.424C248.929 16.848 248.129 16.56 247.063 16.56C246.017 16.56 245.228 16.848 244.695 17.424C244.183 17.9787 243.841 18.6933 243.671 19.568C243.521 20.4213 243.447 21.4987 243.447 22.8V30H236.087V22.896C236.087 21.5947 236.012 20.5067 235.863 19.632C235.713 18.736 235.372 18 234.839 17.424C234.305 16.848 233.505 16.56 232.439 16.56C231.308 16.56 230.476 16.848 229.943 17.424C229.409 18 229.068 18.7467 228.919 19.664C228.791 20.56 228.727 21.7653 228.727 23.28V30H221.335V12.56H227.927L228.471 14.64C229.281 13.7227 230.316 13.0507 231.575 12.624C232.855 12.1973 234.391 11.984 236.183 11.984C237.74 11.984 239.02 12.272 240.023 12.848C241.025 13.424 241.804 14.3627 242.359 15.664C243.084 14.3627 244.129 13.424 245.495 12.848C246.86 12.272 248.641 11.984 250.839 11.984ZM283.516 22H266.46C266.609 23.344 267.111 24.4533 267.964 25.328C268.839 26.1813 270.023 26.608 271.516 26.608C272.732 26.608 273.809 26.32 274.748 25.744C275.708 25.1467 276.188 24.24 276.188 23.024H283.516C283.516 25.4987 282.449 27.3867 280.316 28.688C278.204 29.9893 275.26 30.64 271.484 30.64C269.159 30.64 267.047 30.2453 265.148 29.456C263.249 28.6667 261.745 27.5573 260.636 26.128C259.527 24.6773 258.972 23.024 258.972 21.168C258.972 19.2907 259.516 17.6373 260.604 16.208C261.713 14.7573 263.217 13.648 265.116 12.88C267.036 12.0907 269.159 11.696 271.484 11.696C273.873 11.696 275.964 12.08 277.756 12.848C279.569 13.616 280.977 14.704 281.98 16.112C282.983 17.4987 283.495 19.1307 283.516 21.008V21.168H283.58H283.516V22ZM271.484 15.6C270.076 15.6 268.999 15.8987 268.252 16.496C267.505 17.0933 266.993 17.9253 266.716 18.992H275.996C275.761 17.9253 275.292 17.0933 274.588 16.496C273.884 15.8987 272.849 15.6 271.484 15.6ZM311.98 15.92C314.07 15.92 315.894 16.0693 317.452 16.368C319.03 16.6453 320.342 17.2533 321.388 18.192C322.454 19.1307 322.988 20.496 322.988 22.288C322.988 25.5947 321.516 27.8347 318.572 29.008C315.649 30.16 312.364 30.736 308.716 30.736C305.089 30.736 301.729 30.1493 298.636 28.976C295.542 27.7813 293.996 25.52 293.996 22.192L302.156 22.16C302.156 23.632 302.817 24.5707 304.14 24.976C305.484 25.36 307.052 25.552 308.844 25.552C310.529 25.552 311.969 25.3067 313.164 24.816C314.38 24.3253 314.988 23.5253 314.988 22.416V22.384C314.988 21.7653 314.614 21.3067 313.868 21.008C313.121 20.7093 312.321 20.528 311.468 20.464C310.614 20.4 309.59 20.3573 308.396 20.336H305.996C303.692 20.336 301.686 20.1973 299.98 19.92C298.294 19.6213 296.876 18.9813 295.724 18C294.572 17.0187 293.996 15.568 293.996 13.648C293.996 10.32 295.489 8.15466 298.476 7.152C301.484 6.128 304.897 5.616 308.716 5.616C312.3 5.616 315.574 6.20267 318.54 7.376C321.505 8.54933 322.988 10.8107 322.988 14.16H314.956C314.956 13.0933 314.348 12.304 313.132 11.792C311.937 11.2587 310.476 10.96 308.748 10.896C306.892 10.896 305.324 11.1093 304.044 11.536C302.764 11.9627 302.124 12.6347 302.124 13.552C302.124 14.512 302.774 15.152 304.076 15.472C305.377 15.792 306.849 15.952 308.492 15.952L311.98 15.92ZM348.244 22H331.188C331.337 23.344 331.838 24.4533 332.692 25.328C333.566 26.1813 334.75 26.608 336.244 26.608C337.46 26.608 338.537 26.32 339.476 25.744C340.436 25.1467 340.916 24.24 340.916 23.024H348.244C348.244 25.4987 347.177 27.3867 345.044 28.688C342.932 29.9893 339.988 30.64 336.212 30.64C333.886 30.64 331.774 30.2453 329.876 29.456C327.977 28.6667 326.473 27.5573 325.364 26.128C324.254 24.6773 323.7 23.024 323.7 21.168C323.7 19.2907 324.244 17.6373 325.332 16.208C326.441 14.7573 327.945 13.648 329.844 12.88C331.764 12.0907 333.886 11.696 336.212 11.696C338.601 11.696 340.692 12.08 342.484 12.848C344.297 13.616 345.705 14.704 346.708 16.112C347.71 17.4987 348.222 19.1307 348.244 21.008V21.168H348.308H348.244V22ZM336.212 15.6C334.804 15.6 333.726 15.8987 332.98 16.496C332.233 17.0933 331.721 17.9253 331.444 18.992H340.724C340.489 17.9253 340.02 17.0933 339.316 16.496C338.612 15.8987 337.577 15.6 336.212 15.6ZM356.468 15.6C358.175 13.7227 360.873 12.592 364.564 12.208V17.776H360.308C358.985 17.776 358.025 18.2773 357.428 19.28C356.831 20.2613 356.532 21.552 356.532 23.152V30H349.172V12.56H355.86L356.468 15.6ZM378.238 23.696L383.262 12.56H391.198L382.302 30H374.142L365.278 12.56H373.214L378.238 23.696ZM399.423 6.32H392.063V11.152H399.423V6.32ZM399.423 30H392.063V12.08H399.423V30ZM400.326 21.392C400.326 19.6 400.859 17.9893 401.926 16.56C402.992 15.1093 404.454 13.9787 406.31 13.168C408.166 12.3573 410.214 11.952 412.454 11.952C414.587 11.952 416.464 12.2827 418.086 12.944C419.728 13.584 421.051 14.4907 422.054 15.664C423.056 16.8373 423.718 18.192 424.038 19.728H416.678C416.443 18.768 415.952 18 415.206 17.424C414.459 16.848 413.552 16.56 412.486 16.56C411.099 16.56 409.968 17.008 409.094 17.904C408.219 18.7787 407.782 19.9413 407.782 21.392C407.782 22.8 408.208 23.9627 409.062 24.88C409.915 25.776 411.035 26.224 412.422 26.224C413.51 26.224 414.427 25.936 415.174 25.36C415.92 24.784 416.411 24.0267 416.646 23.088H424.006C423.771 24.5387 423.131 25.8507 422.086 27.024C421.04 28.1973 419.675 29.1253 417.99 29.808C416.326 30.4907 414.48 30.832 412.454 30.832C410.235 30.832 408.198 30.4267 406.342 29.616C404.486 28.784 403.014 27.6533 401.926 26.224C400.859 24.7733 400.326 23.1627 400.326 21.392ZM448.987 22H431.931C432.081 23.344 432.582 24.4533 433.435 25.328C434.31 26.1813 435.494 26.608 436.987 26.608C438.203 26.608 439.281 26.32 440.219 25.744C441.179 25.1467 441.659 24.24 441.659 23.024H448.987C448.987 25.4987 447.921 27.3867 445.787 28.688C443.675 29.9893 440.731 30.64 436.955 30.64C434.63 30.64 432.518 30.2453 430.619 29.456C428.721 28.6667 427.217 27.5573 426.107 26.128C424.998 24.6773 424.443 23.024 424.443 21.168C424.443 19.2907 424.987 17.6373 426.075 16.208C427.185 14.7573 428.689 13.648 430.587 12.88C432.507 12.0907 434.63 11.696 436.955 11.696C439.345 11.696 441.435 12.08 443.227 12.848C445.041 13.616 446.449 14.704 447.451 16.112C448.454 17.4987 448.966 19.1307 448.987 21.008V21.168H449.051H448.987V22ZM436.955 15.6C435.547 15.6 434.47 15.8987 433.723 16.496C432.977 17.0933 432.465 17.9253 432.187 18.992H441.467C441.233 17.9253 440.763 17.0933 440.059 16.496C439.355 15.8987 438.321 15.6 436.955 15.6Z" fill="#9FE0C1"/>
</svg>
