<svg width="634" height="519" viewBox="0 0 634 519" fill="none" xmlns="http://www.w3.org/2000/svg">
<path d="M0 173.001H115.273V288.333H0V173.001Z" fill="#9FE0C1"/>
<path d="M345.819 173.002H461.091V288.335H345.819V173.002Z" fill="#9FE0C1"/>
<path d="M0 288.333H115.273V403.667H0L0 288.333Z" fill="#9FE0C1"/>
<path d="M345.819 288.335H461.091V403.667H345.819V288.335Z" fill="#9FE0C1"/>
<path d="M0 403.667H115.273V519H0V403.667Z" fill="#9FE0C1"/>
<path d="M345.819 403.667H461.091V519H345.819V403.667Z" fill="#9FE0C1"/>
<path d="M115.273 403.667H230.546V519H115.273V403.667Z" fill="#9FE0C1"/>
<path d="M230.546 403.667H345.819V519H230.546V403.667Z" fill="#9FE0C1"/>
<path d="M172.909 346H288.182V230.667H172.909V346Z" fill="#9FE0C1"/>
<path d="M518.727 345.998H634V230.665H518.727V345.998Z" fill="#9FE0C1"/>
<path d="M172.909 230.667H288.182L288.181 115.333H172.909L172.909 230.667Z" fill="#9FE0C1"/>
<path d="M518.727 230.665H634V115.333H518.727V230.665Z" fill="#9FE0C1"/>
<path d="M172.909 115.333H288.181V0H172.909V115.333Z" fill="#9FE0C1"/>
<path d="M518.727 115.333H634V0H518.727V115.333Z" fill="#9FE0C1"/>
<path d="M288.181 115.333L403.454 115.333V0H288.181V115.333Z" fill="#9FE0C1"/>
<path d="M403.454 115.333L518.727 115.333V0H403.454V115.333Z" fill="#9FE0C1"/>
</svg>
